<svg viewBox="0 0 900 520" xmlns="http://www.w3.org/2000/svg" style="font-family:'JetBrains Mono',monospace;">
  <title>Software Knowledge Base — Series Panorama (20 Articles × 5 Layers)</title>
  <desc>Complete visual map of the 20-article series showing all 5 layers, their articles, and the dependency chain from L0 Code Craft to L4 Engineering Culture.</desc>

  <rect width="900" height="520" rx="8" fill="#0a0e17"/>

  <!-- Title -->
  <text x="450" y="32" text-anchor="middle" font-size="14" fill="#22d3ee" font-weight="700" letter-spacing="1">SOFTWARE KNOWLEDGE BASE — 20 ARTICLES × 5 LAYERS</text>
  <text x="450" y="50" text-anchor="middle" font-size="10" fill="#64748b" font-style="italic">经典基础 × AI协同进化 · Classical Foundations × AI Co-Evolution</text>

  <!-- L0 -->
  <rect x="30" y="70" width="840" height="70" rx="6" fill="#141b2d" stroke="#22d3ee" stroke-width="1.2"/>
  <text x="50" y="92" font-size="11" fill="#22d3ee" font-weight="700">L0 CODE CRAFT</text>
  <text x="210" y="92" font-size="9" fill="#64748b">The engineer who sees code as infrastructure · 代码工艺层</text>
  <rect x="50" y="102" width="185" height="28" rx="4" fill="#0f1420" stroke="#1e2a45" stroke-width="0.5"/>
  <text x="142" y="120" text-anchor="middle" font-size="8" fill="#94a3b8">0.1 Craft Spectrum</text>
  <rect x="250" y="102" width="185" height="28" rx="4" fill="#0f1420" stroke="#1e2a45" stroke-width="0.5"/>
  <text x="342" y="120" text-anchor="middle" font-size="8" fill="#94a3b8">0.2 AI-Era Refactoring</text>
  <rect x="450" y="102" width="185" height="28" rx="4" fill="#0f1420" stroke="#1e2a45" stroke-width="0.5"/>
  <text x="542" y="120" text-anchor="middle" font-size="8" fill="#94a3b8">0.3 Testing Strategies</text>
  <rect x="650" y="102" width="200" height="28" rx="4" fill="#0f1420" stroke="#1e2a45" stroke-width="0.5"/>
  <text x="750" y="120" text-anchor="middle" font-size="8" fill="#94a3b8">0.4 Developer's Toolkit</text>

  <!-- L1 -->
  <rect x="30" y="155" width="840" height="70" rx="6" fill="#141b2d" stroke="#a78bfa" stroke-width="1.2"/>
  <text x="50" y="177" font-size="11" fill="#a78bfa" font-weight="700">L1 DESIGN THINKING</text>
  <text x="240" y="177" font-size="9" fill="#64748b">The engineer who designs for two audiences · 设计思维层</text>
  <rect x="50" y="187" width="185" height="28" rx="4" fill="#0f1420" stroke="#1e2a45" stroke-width="0.5"/>
  <text x="142" y="205" text-anchor="middle" font-size="8" fill="#94a3b8">1.1 Design Patterns</text>
  <rect x="250" y="187" width="185" height="28" rx="4" fill="#0f1420" stroke="#1e2a45" stroke-width="0.5"/>
  <text x="342" y="205" text-anchor="middle" font-size="8" fill="#94a3b8">1.2 DDD Meets AI</text>
  <rect x="450" y="187" width="185" height="28" rx="4" fill="#0f1420" stroke="#1e2a45" stroke-width="0.5"/>
  <text x="542" y="205" text-anchor="middle" font-size="8" fill="#94a3b8">1.3 API Design</text>
  <rect x="650" y="187" width="200" height="28" rx="4" fill="#0f1420" stroke="#1e2a45" stroke-width="0.5"/>
  <text x="750" y="205" text-anchor="middle" font-size="8" fill="#94a3b8">1.4 Error &amp; Observability</text>

  <!-- L2 -->
  <rect x="30" y="240" width="840" height="70" rx="6" fill="#141b2d" stroke="#f97316" stroke-width="1.2"/>
  <text x="50" y="262" font-size="11" fill="#f97316" font-weight="700">L2 ARCHITECTURE</text>
  <text x="210" y="262" font-size="9" fill="#64748b">The engineer who quantifies trade-offs · 架构决策层</text>
  <rect x="50" y="272" width="145" height="28" rx="4" fill="#0f1420" stroke="#1e2a45" stroke-width="0.5"/>
  <text x="122" y="290" text-anchor="middle" font-size="7.5" fill="#94a3b8">2.1 Arch Styles</text>
  <rect x="208" y="272" width="145" height="28" rx="4" fill="#0f1420" stroke="#1e2a45" stroke-width="0.5"/>
  <text x="280" y="290" text-anchor="middle" font-size="7.5" fill="#94a3b8">2.2 Distributed Data</text>
  <rect x="366" y="272" width="145" height="28" rx="4" fill="#0f1420" stroke="#1e2a45" stroke-width="0.5"/>
  <text x="438" y="290" text-anchor="middle" font-size="7.5" fill="#94a3b8">2.3 Event-Driven</text>
  <rect x="524" y="272" width="145" height="28" rx="4" fill="#0f1420" stroke="#1e2a45" stroke-width="0.5"/>
  <text x="596" y="290" text-anchor="middle" font-size="7.5" fill="#94a3b8">2.4 Security</text>
  <rect x="682" y="272" width="170" height="28" rx="4" fill="#0f1420" stroke="#1e2a45" stroke-width="0.5"/>
  <text x="767" y="290" text-anchor="middle" font-size="7.5" fill="#94a3b8">2.5 Data Architecture</text>

  <!-- L3 -->
  <rect x="30" y="325" width="840" height="70" rx="6" fill="#141b2d" stroke="#10b981" stroke-width="1.2"/>
  <text x="50" y="347" font-size="11" fill="#10b981" font-weight="700">L3 INFRASTRUCTURE</text>
  <text x="230" y="347" font-size="9" fill="#64748b">The engineer who builds the machine that watches the machine · 基础设施层</text>
  <rect x="50" y="357" width="185" height="28" rx="4" fill="#0f1420" stroke="#1e2a45" stroke-width="0.5"/>
  <text x="142" y="375" text-anchor="middle" font-size="8" fill="#94a3b8">3.1 CI/CD as Arch</text>
  <rect x="250" y="357" width="185" height="28" rx="4" fill="#0f1420" stroke="#1e2a45" stroke-width="0.5"/>
  <text x="342" y="375" text-anchor="middle" font-size="8" fill="#94a3b8">3.2 DNS &amp; Load Balancing</text>
  <rect x="450" y="357" width="185" height="28" rx="4" fill="#0f1420" stroke="#1e2a45" stroke-width="0.5"/>
  <text x="542" y="375" text-anchor="middle" font-size="8" fill="#94a3b8">3.3 Infra as Code</text>
  <rect x="650" y="357" width="200" height="28" rx="4" fill="#0f1420" stroke="#1e2a45" stroke-width="0.5"/>
  <text x="750" y="375" text-anchor="middle" font-size="8" fill="#94a3b8">3.4 Observability Stack</text>

  <!-- L4 -->
  <rect x="30" y="410" width="840" height="70" rx="6" fill="#141b2d" stroke="#f43f5e" stroke-width="1.2"/>
  <text x="50" y="432" font-size="11" fill="#f43f5e" font-weight="700">L4 ENGINEERING CULTURE</text>
  <text x="270" y="432" font-size="9" fill="#64748b">The engineer who leads the transition · 工程文化层</text>
  <rect x="50" y="442" width="250" height="28" rx="4" fill="#0f1420" stroke="#1e2a45" stroke-width="0.5"/>
  <text x="175" y="460" text-anchor="middle" font-size="8" fill="#94a3b8">4.1 Lean Engineering Manifesto</text>
  <rect x="320" y="442" width="250" height="28" rx="4" fill="#0f1420" stroke="#1e2a45" stroke-width="0.5"/>
  <text x="445" y="460" text-anchor="middle" font-size="8" fill="#94a3b8">4.2 Team Topologies for AI Orgs</text>
  <rect x="590" y="442" width="260" height="28" rx="4" fill="#0f1420" stroke="#1e2a45" stroke-width="0.5"/>
  <text x="720" y="460" text-anchor="middle" font-size="8" fill="#94a3b8">4.3 Personal Knowledge System</text>

  <!-- Dependency chain -->
  <text x="450" y="505" text-anchor="middle" font-size="9" fill="#22d3ee" font-weight="600">L0 Craft → L1 Design → L2 Architecture → L3 Infrastructure → L4 Culture</text>
  <text x="450" y="516" text-anchor="middle" font-size="8" fill="#64748b">20 articles · 30+ source books · 80+ diagrams · RAG-ready knowledge base</text>
</svg>
